<mxfile host="app.diagrams.net" modified="2023-08-17T02:53:44.578Z" agent="Mozilla/5.0 (Windows NT 10.0; Win64; x64) AppleWebKit/537.36 (KHTML, like Gecko) Chrome/115.0.0.0 Safari/537.36" etag="r__HBX0R0MiEGeT1zI8S" version="21.6.8" type="github">
  <diagram name="Page-1" id="8VchPdbZndg6xdBSo25u">
    <mxGraphModel dx="1434" dy="750" grid="1" gridSize="10" guides="1" tooltips="1" connect="1" arrows="1" fold="1" page="1" pageScale="1" pageWidth="850" pageHeight="1100" math="0" shadow="0">
      <root>
        <mxCell id="0" />
        <mxCell id="1" parent="0" />
        <mxCell id="lvYnx1KmHkeo_NzQNYAI-1" value="" style="ellipse;html=1;shape=startState;fillColor=#000000;strokeColor=#ff0000;" vertex="1" parent="1">
          <mxGeometry x="410" width="30" height="30" as="geometry" />
        </mxCell>
        <mxCell id="lvYnx1KmHkeo_NzQNYAI-2" value="" style="edgeStyle=orthogonalEdgeStyle;html=1;verticalAlign=bottom;endArrow=open;endSize=8;strokeColor=#ff0000;rounded=0;" edge="1" parent="1" source="lvYnx1KmHkeo_NzQNYAI-1">
          <mxGeometry relative="1" as="geometry">
            <mxPoint x="425" y="80" as="targetPoint" />
          </mxGeometry>
        </mxCell>
        <mxCell id="lvYnx1KmHkeo_NzQNYAI-3" value="COURT BAILIFF IS ON SITE" style="rounded=1;whiteSpace=wrap;html=1;arcSize=40;fontColor=#000000;fillColor=#ffffc0;strokeColor=#ff0000;" vertex="1" parent="1">
          <mxGeometry x="365" y="80" width="120" height="40" as="geometry" />
        </mxCell>
        <mxCell id="lvYnx1KmHkeo_NzQNYAI-4" value="" style="edgeStyle=orthogonalEdgeStyle;html=1;verticalAlign=bottom;endArrow=open;endSize=8;strokeColor=#ff0000;rounded=0;" edge="1" parent="1" source="lvYnx1KmHkeo_NzQNYAI-3">
          <mxGeometry relative="1" as="geometry">
            <mxPoint x="425" y="160" as="targetPoint" />
          </mxGeometry>
        </mxCell>
        <mxCell id="lvYnx1KmHkeo_NzQNYAI-5" value="Situation Context" style="rounded=1;whiteSpace=wrap;html=1;arcSize=40;fontColor=#000000;fillColor=#ffffc0;strokeColor=#ff0000;" vertex="1" parent="1">
          <mxGeometry x="5" y="20" width="120" height="40" as="geometry" />
        </mxCell>
        <mxCell id="lvYnx1KmHkeo_NzQNYAI-6" value="" style="edgeStyle=orthogonalEdgeStyle;html=1;verticalAlign=bottom;endArrow=open;endSize=8;strokeColor=#ff0000;rounded=0;" edge="1" parent="1">
          <mxGeometry relative="1" as="geometry">
            <mxPoint x="64.5" y="240" as="targetPoint" />
            <mxPoint x="65" y="180" as="sourcePoint" />
          </mxGeometry>
        </mxCell>
        <mxCell id="lvYnx1KmHkeo_NzQNYAI-7" value="Flow" style="edgeLabel;html=1;align=center;verticalAlign=middle;resizable=0;points=[];" vertex="1" connectable="0" parent="lvYnx1KmHkeo_NzQNYAI-6">
          <mxGeometry x="-0.3333" y="3" relative="1" as="geometry">
            <mxPoint x="-2" y="10" as="offset" />
          </mxGeometry>
        </mxCell>
        <mxCell id="lvYnx1KmHkeo_NzQNYAI-8" value="Start Point" style="ellipse;html=1;shape=startState;fillColor=#000000;strokeColor=#ff0000;" vertex="1" parent="1">
          <mxGeometry x="50" y="250" width="30" height="30" as="geometry" />
        </mxCell>
        <mxCell id="lvYnx1KmHkeo_NzQNYAI-9" value="End Point" style="ellipse;html=1;shape=endState;fillColor=#000000;strokeColor=#ff0000;" vertex="1" parent="1">
          <mxGeometry x="50" y="290" width="30" height="30" as="geometry" />
        </mxCell>
        <mxCell id="lvYnx1KmHkeo_NzQNYAI-10" value="DISCLAIMER" style="swimlane;fontStyle=0;childLayout=stackLayout;horizontal=1;startSize=26;fillColor=#e51400;horizontalStack=0;resizeParent=1;resizeParentMax=0;resizeLast=0;collapsible=1;marginBottom=0;whiteSpace=wrap;html=1;fontColor=#ffffff;strokeColor=#B20000;" vertex="1" parent="1">
          <mxGeometry x="650" y="20" width="190" height="170" as="geometry" />
        </mxCell>
        <mxCell id="lvYnx1KmHkeo_NzQNYAI-11" value="THIS MODULE IS DESIGNED TO TEST AND REFINE YOUR DECISION MAKING. &lt;br&gt;&lt;br&gt;THE MODULE USES GENERAL PROCEDURES, REFER TO YOUR RESPECTIVE BUILDING PROTOCOLS AND ADHERE TO THEM DURING DUTY" style="text;strokeColor=#B20000;fillColor=#e51400;align=center;verticalAlign=top;spacingLeft=4;spacingRight=4;overflow=hidden;rotatable=0;points=[[0,0.5],[1,0.5]];portConstraint=eastwest;whiteSpace=wrap;html=1;fontColor=#ffffff;" vertex="1" parent="lvYnx1KmHkeo_NzQNYAI-10">
          <mxGeometry y="26" width="190" height="144" as="geometry" />
        </mxCell>
        <mxCell id="lvYnx1KmHkeo_NzQNYAI-12" value="" style="shape=line;html=1;strokeWidth=6;strokeColor=#ff0000;" vertex="1" parent="1">
          <mxGeometry x="8" y="450" width="122" height="10" as="geometry" />
        </mxCell>
        <mxCell id="lvYnx1KmHkeo_NzQNYAI-13" value="" style="edgeStyle=orthogonalEdgeStyle;html=1;verticalAlign=bottom;endArrow=open;endSize=8;strokeColor=#ff0000;rounded=0;" edge="1" parent="1" source="lvYnx1KmHkeo_NzQNYAI-12">
          <mxGeometry relative="1" as="geometry">
            <mxPoint x="70" y="520" as="targetPoint" />
            <Array as="points">
              <mxPoint x="69" y="510" />
              <mxPoint x="70" y="510" />
            </Array>
          </mxGeometry>
        </mxCell>
        <mxCell id="lvYnx1KmHkeo_NzQNYAI-14" value="Fork" style="text;html=1;align=center;verticalAlign=middle;resizable=0;points=[];autosize=1;strokeColor=none;fillColor=none;" vertex="1" parent="1">
          <mxGeometry x="45" y="430" width="50" height="30" as="geometry" />
        </mxCell>
        <mxCell id="lvYnx1KmHkeo_NzQNYAI-15" value="Condition" style="rhombus;whiteSpace=wrap;html=1;fontColor=#000000;fillColor=#ffffc0;strokeColor=#ff0000;" vertex="1" parent="1">
          <mxGeometry x="70" y="370" width="80" height="40" as="geometry" />
        </mxCell>
        <mxCell id="lvYnx1KmHkeo_NzQNYAI-16" value="" style="edgeStyle=orthogonalEdgeStyle;html=1;align=left;verticalAlign=bottom;endArrow=open;endSize=8;strokeColor=#ff0000;rounded=0;" edge="1" parent="1" source="lvYnx1KmHkeo_NzQNYAI-15">
          <mxGeometry x="-0.2549" y="10" relative="1" as="geometry">
            <mxPoint x="210" y="390" as="targetPoint" />
            <mxPoint as="offset" />
          </mxGeometry>
        </mxCell>
        <mxCell id="lvYnx1KmHkeo_NzQNYAI-17" value="" style="edgeStyle=orthogonalEdgeStyle;html=1;align=left;verticalAlign=top;endArrow=open;endSize=8;strokeColor=#ff0000;rounded=0;" edge="1" parent="1">
          <mxGeometry x="0.2" y="60" relative="1" as="geometry">
            <mxPoint x="10" y="390" as="targetPoint" />
            <mxPoint x="70" y="390" as="sourcePoint" />
            <Array as="points">
              <mxPoint x="70" y="390" />
              <mxPoint x="70" y="390" />
            </Array>
            <mxPoint as="offset" />
          </mxGeometry>
        </mxCell>
        <mxCell id="lvYnx1KmHkeo_NzQNYAI-18" value="YES" style="text;html=1;align=center;verticalAlign=middle;resizable=0;points=[];autosize=1;strokeColor=none;fillColor=none;" vertex="1" parent="1">
          <mxGeometry x="15" y="360" width="50" height="30" as="geometry" />
        </mxCell>
        <mxCell id="lvYnx1KmHkeo_NzQNYAI-19" value="NO" style="text;html=1;align=center;verticalAlign=middle;resizable=0;points=[];autosize=1;strokeColor=none;fillColor=none;" vertex="1" parent="1">
          <mxGeometry x="160" y="360" width="40" height="30" as="geometry" />
        </mxCell>
        <mxCell id="lvYnx1KmHkeo_NzQNYAI-20" value="STEP" style="shape=umlFrame;whiteSpace=wrap;html=1;pointerEvents=0;" vertex="1" parent="1">
          <mxGeometry x="4" y="70" width="130" height="90" as="geometry" />
        </mxCell>
        <mxCell id="lvYnx1KmHkeo_NzQNYAI-36" style="edgeStyle=orthogonalEdgeStyle;rounded=0;orthogonalLoop=1;jettySize=auto;html=1;entryX=0.477;entryY=-0.01;entryDx=0;entryDy=0;entryPerimeter=0;strokeColor=#FF3333;" edge="1" parent="1" source="lvYnx1KmHkeo_NzQNYAI-23" target="lvYnx1KmHkeo_NzQNYAI-26">
          <mxGeometry relative="1" as="geometry">
            <Array as="points">
              <mxPoint x="425" y="255" />
            </Array>
          </mxGeometry>
        </mxCell>
        <mxCell id="lvYnx1KmHkeo_NzQNYAI-23" value="STEP" style="shape=umlFrame;whiteSpace=wrap;html=1;pointerEvents=0;" vertex="1" parent="1">
          <mxGeometry x="360" y="160" width="130" height="70" as="geometry" />
        </mxCell>
        <mxCell id="lvYnx1KmHkeo_NzQNYAI-24" value="ASK ID" style="text;html=1;align=center;verticalAlign=middle;resizable=0;points=[];autosize=1;strokeColor=none;fillColor=none;" vertex="1" parent="1">
          <mxGeometry x="395" y="190" width="60" height="30" as="geometry" />
        </mxCell>
        <mxCell id="lvYnx1KmHkeo_NzQNYAI-35" style="edgeStyle=orthogonalEdgeStyle;rounded=0;orthogonalLoop=1;jettySize=auto;html=1;entryX=0.492;entryY=-0.027;entryDx=0;entryDy=0;entryPerimeter=0;strokeColor=#FF3333;" edge="1" parent="1" source="lvYnx1KmHkeo_NzQNYAI-26" target="lvYnx1KmHkeo_NzQNYAI-28">
          <mxGeometry relative="1" as="geometry" />
        </mxCell>
        <mxCell id="lvYnx1KmHkeo_NzQNYAI-26" value="STEP" style="shape=umlFrame;whiteSpace=wrap;html=1;pointerEvents=0;" vertex="1" parent="1">
          <mxGeometry x="356" y="280" width="143" height="100" as="geometry" />
        </mxCell>
        <mxCell id="lvYnx1KmHkeo_NzQNYAI-27" value="THE BAILIFF WILL&amp;nbsp;&lt;br&gt;PRODUCE A COURT&amp;nbsp;&lt;br&gt;ORDER OR A&amp;nbsp;&lt;br&gt;WARRANT" style="text;html=1;align=center;verticalAlign=middle;resizable=0;points=[];autosize=1;strokeColor=none;fillColor=none;" vertex="1" parent="1">
          <mxGeometry x="357.5" y="310" width="140" height="70" as="geometry" />
        </mxCell>
        <mxCell id="lvYnx1KmHkeo_NzQNYAI-37" style="edgeStyle=orthogonalEdgeStyle;rounded=0;orthogonalLoop=1;jettySize=auto;html=1;entryX=0.503;entryY=-0.029;entryDx=0;entryDy=0;entryPerimeter=0;strokeColor=#FF3333;" edge="1" parent="1" source="lvYnx1KmHkeo_NzQNYAI-28" target="lvYnx1KmHkeo_NzQNYAI-33">
          <mxGeometry relative="1" as="geometry" />
        </mxCell>
        <mxCell id="lvYnx1KmHkeo_NzQNYAI-28" value="STEP" style="shape=umlFrame;whiteSpace=wrap;html=1;pointerEvents=0;" vertex="1" parent="1">
          <mxGeometry x="364" y="430" width="130" height="150" as="geometry" />
        </mxCell>
        <mxCell id="lvYnx1KmHkeo_NzQNYAI-29" value="GIVE ACCESS&amp;nbsp;&lt;br&gt;IMMIDEATELY.&amp;nbsp;&lt;br&gt;DO NOT ASK&amp;nbsp;&lt;br&gt;QUESTIONS, AND&lt;br&gt;DO NOT ANNOUNCE&lt;br&gt;THE BAILIFF TO&amp;nbsp;&lt;br&gt;THE RESIDENT" style="text;html=1;align=center;verticalAlign=middle;resizable=0;points=[];autosize=1;strokeColor=none;fillColor=none;" vertex="1" parent="1">
          <mxGeometry x="359" y="460" width="140" height="110" as="geometry" />
        </mxCell>
        <mxCell id="lvYnx1KmHkeo_NzQNYAI-30" value="" style="edgeStyle=orthogonalEdgeStyle;html=1;verticalAlign=bottom;endArrow=open;endSize=8;strokeColor=#ff0000;rounded=0;" edge="1" parent="1" target="lvYnx1KmHkeo_NzQNYAI-31">
          <mxGeometry relative="1" as="geometry">
            <mxPoint x="429" y="780" as="targetPoint" />
            <mxPoint x="428.9999999999999" y="710" as="sourcePoint" />
          </mxGeometry>
        </mxCell>
        <mxCell id="lvYnx1KmHkeo_NzQNYAI-31" value="" style="ellipse;html=1;shape=endState;fillColor=#000000;strokeColor=#ff0000;" vertex="1" parent="1">
          <mxGeometry x="414" y="765" width="30" height="30" as="geometry" />
        </mxCell>
        <mxCell id="lvYnx1KmHkeo_NzQNYAI-32" value="MAKE AN INCIDENT REPORT WITH TIME STAMPS &lt;br&gt;AND DETAILS OF THE OFFICER." style="text;html=1;align=center;verticalAlign=middle;resizable=0;points=[];autosize=1;strokeColor=none;fillColor=none;" vertex="1" parent="1">
          <mxGeometry x="274" y="670" width="310" height="40" as="geometry" />
        </mxCell>
        <mxCell id="lvYnx1KmHkeo_NzQNYAI-33" value="STEP" style="shape=umlFrame;whiteSpace=wrap;html=1;pointerEvents=0;" vertex="1" parent="1">
          <mxGeometry x="249" y="640" width="360" height="70" as="geometry" />
        </mxCell>
      </root>
    </mxGraphModel>
  </diagram>
</mxfile>
